<svg width="29" height="26" viewBox="0 0 29 26" fill="none" xmlns="http://www.w3.org/2000/svg">
<path d="M23.7812 18.4885L23.4526 18.5091L23.3417 18.8192C22.681 20.667 21.5681 22.3199 20.1044 23.6271L19.127 24.5H20.4375H23.5C23.6326 24.5 23.7598 24.5527 23.8536 24.6464C23.9473 24.7402 24 24.8674 24 25C24 25.1326 23.9473 25.2598 23.8536 25.3536C23.7598 25.4473 23.6326 25.5 23.5 25.5H1.5C1.36739 25.5 1.24021 25.4473 1.14645 25.3536C1.05268 25.2598 1 25.1326 1 25C1 24.8674 1.05268 24.7402 1.14645 24.6464C1.24021 24.5527 1.36739 24.5 1.5 24.5H4.5625H5.88159L4.89393 23.6256C3.67247 22.5443 2.69393 21.2164 2.02276 19.7295C1.35166 18.2428 1.00309 16.6307 1 14.9995V9C1 8.86739 1.05268 8.74022 1.14645 8.64645C1.24021 8.55268 1.36739 8.5 1.5 8.5H23.5C24.6935 8.5 25.8381 8.97411 26.682 9.81802C27.5259 10.6619 28 11.8065 28 13V13.9997C27.9994 15.1441 27.5628 16.2452 26.7791 17.0791C25.9953 17.913 24.9234 18.417 23.7812 18.4885ZM23 10V9.5H22.5H2.5H2V10L2 15L2 15.0011C2.00427 16.9718 2.56111 18.9019 3.60727 20.5721C4.65344 22.2422 6.147 23.5855 7.91832 24.4494L8.02207 24.5H8.1375H16.8625H16.9781L17.082 24.4492C18.4052 23.8026 19.5782 22.8858 20.5253 21.7579C21.4624 20.6418 22.1578 19.3436 22.5675 17.9453C22.5889 17.8972 22.6046 17.8468 22.6143 17.795C22.8727 16.8857 23.0026 15.9447 23 14.9993C23 14.9991 23 14.9988 23 14.9986L23 10ZM27 13V12.9994C26.9992 12.2763 26.7744 11.5712 26.3566 10.9811C25.9388 10.3909 25.3484 9.94463 24.6667 9.7036L24 9.46789V10.175V15V15.0006C24.0008 15.6016 23.9527 16.2017 23.8565 16.7949L23.7291 17.5798L24.4917 17.3545C25.2155 17.1406 25.8509 16.6985 26.3029 16.094C26.755 15.4896 26.9995 14.7551 27 14.0003V14V13ZM8 5V1C8 0.867392 8.05268 0.740215 8.14645 0.646447C8.24021 0.552678 8.36739 0.5 8.5 0.5C8.63261 0.5 8.75978 0.552678 8.85355 0.646447C8.94732 0.740215 9 0.867392 9 1V5C9 5.13261 8.94732 5.25978 8.85355 5.35355C8.75978 5.44732 8.63261 5.5 8.5 5.5C8.36739 5.5 8.24022 5.44732 8.14645 5.35355C8.05268 5.25978 8 5.13261 8 5ZM12.8536 5.35355C12.7598 5.44732 12.6326 5.5 12.5 5.5C12.3674 5.5 12.2402 5.44732 12.1464 5.35355C12.0527 5.25978 12 5.13261 12 5V1C12 0.867392 12.0527 0.740215 12.1464 0.646447C12.2402 0.552678 12.3674 0.5 12.5 0.5C12.6326 0.5 12.7598 0.552678 12.8536 0.646447C12.9473 0.740215 13 0.867392 13 1V5C13 5.13261 12.9473 5.25978 12.8536 5.35355ZM16.8536 5.35355C16.7598 5.44732 16.6326 5.5 16.5 5.5C16.3674 5.5 16.2402 5.44732 16.1464 5.35355C16.0527 5.25979 16 5.13261 16 5V1C16 0.867391 16.0527 0.740214 16.1464 0.646447C16.2402 0.552679 16.3674 0.5 16.5 0.5C16.6326 0.5 16.7598 0.552679 16.8536 0.646447C16.9473 0.740214 17 0.867391 17 1V5C17 5.13261 16.9473 5.25979 16.8536 5.35355Z" fill="#F2FFF5" stroke="black"/>
</svg>
